HIERARCHY
ROOT Hips
{
    OFFSET 0.000000 0.000000 0.000000
    CHANNELS 6 Xposition Yposition Zposition Zrotation Xrotation Yrotation
    JOINT Spine
    {
        OFFSET -0.000000 14.517291 0.000000
        CHANNELS 3 Zrotation Xrotation Yrotation
        JOINT Spine1
        {
            OFFSET -0.000000 37.558300 0.000000
            CHANNELS 3 Zrotation Xrotation Yrotation
            JOINT Neck
            {
                OFFSET -0.000000 37.404057 3.400369
                CHANNELS 3 Zrotation Xrotation Yrotation
                JOINT Head
                {
                    OFFSET -0.000000 24.785618 -3.540803
                    CHANNELS 3 Zrotation Xrotation Yrotation
                    End Site
                    {
                        OFFSET -0.000000 35.408028 0.000000
                    }
                }
            }
            JOINT LeftShoulder
            {
                OFFSET 6.992933 33.973492 -0.192664
                CHANNELS 3 Zrotation Xrotation Yrotation
                JOINT LeftArm
                {
                    OFFSET 21.527611 0.000000 0.000000
                    CHANNELS 3 Zrotation Xrotation Yrotation
                    JOINT LeftForeArm
                    {
                        OFFSET 56.353916 0.000000 0.000000
                        CHANNELS 3 Zrotation Xrotation Yrotation
                        JOINT LeftHand
                        {
                            OFFSET 47.774071 0.000000 0.000000
                            CHANNELS 3 Zrotation Xrotation Yrotation
                            End Site
                            {
                                OFFSET 26.556021 0.000000 0.000000
                            }
                        }
                    }
                }
            }
            JOINT RightShoulder
            {
                OFFSET -7.065357 33.973492 -0.192664
                CHANNELS 3 Zrotation Xrotation Yrotation
                JOINT RightArm
                {
                    OFFSET -21.527611 0.000000 0.000000
                    CHANNELS 3 Zrotation Xrotation Yrotation
                    JOINT RightForeArm
                    {
                        OFFSET -56.353916 0.000000 0.000000
                        CHANNELS 3 Zrotation Xrotation Yrotation
                        JOINT RightHand
                        {
                            OFFSET -47.774071 0.000000 0.000000
                            CHANNELS 3 Zrotation Xrotation Yrotation
                            End Site
                            {
                                OFFSET -26.556021 0.000000 0.000000
                            }
                        }
                    }
                }
            }
        }
    }
    JOINT LeftUpLeg
    {
        OFFSET 17.704014 0.000000 0.000000
        CHANNELS 3 Zrotation Xrotation Yrotation
        JOINT LeftLeg
        {
            OFFSET -0.000000 -81.181816 0.000000
            CHANNELS 3 Zrotation Xrotation Yrotation
            JOINT LeftFoot
            {
                OFFSET -0.000000 -62.821102 0.000000
                CHANNELS 3 Zrotation Xrotation Yrotation
                JOINT LeftToeBase
                {
                    OFFSET -0.000000 -11.507608 26.556021
                    CHANNELS 3 Zrotation Xrotation Yrotation
                    End Site
                    {
                        OFFSET -0.000000 0.000000 7.081605
                    }
                }
            }
        }
    }
    JOINT RightUpLeg
    {
        OFFSET -17.704014 0.000000 0.000000
        CHANNELS 3 Zrotation Xrotation Yrotation
        JOINT RightLeg
        {
            OFFSET -0.000000 -81.181816 0.000000
            CHANNELS 3 Zrotation Xrotation Yrotation
            JOINT RightFoot
            {
                OFFSET -0.000000 -62.821102 0.000000
                CHANNELS 3 Zrotation Xrotation Yrotation
                JOINT RightToeBase
                {
                    OFFSET -0.000000 -11.507608 26.556021
                    CHANNELS 3 Zrotation Xrotation Yrotation
                    End Site
                    {
                        OFFSET -0.000000 0.000000 7.081605
                    }
                }
            }
        }
    }
}
MOTION
Frames:    5
Frame Time:    0.008333
-33.317207    149.778809    -29.662075    1.711718    -0.354108    23.662615    -0.577297    2.539162    11.195365    -2.804531    0.823948    3.748541    -7.474919    7.637069    -18.084829    19.237244    -7.059158    -14.401970    2.765369    1.753545    -7.414877    -21.468033    -0.367370    -45.990627    -14.828757    -23.600880    -100.263847    -7.276348    -37.892864    -20.237988    0.216232    12.386966    0.826929    41.747330    10.758166    47.546528    -42.531380    -37.198582    45.819473    20.813559    -14.840157    32.280106    -1.789039    -33.770237    -29.232653    -13.564683    31.027596    -22.839745    -7.049156    -3.730739    31.913145    0.000000    0.000000    0.000000    2.745318    9.525223    -19.614002    2.109379    30.487560    -3.275995    0.075814    -34.629833    -7.814941    0.000000    0.000000    0.000000    
-33.318172    149.771851    -29.654800    1.719367    -0.358915    23.687912    -0.576994    2.527519    11.210002    -2.840805    0.838804    3.754058    -7.476064    7.646659    -18.111376    19.304090    -7.032311    -14.421494    2.738552    1.829487    -7.419032    -21.631426    -0.139871    -46.166527    -14.683385    -23.563906    -100.389099    -7.136255    -37.776340    -20.105330    0.227953    12.391284    0.824342    41.723331    10.783854    47.543388    -42.630745    -37.224510    45.709621    20.832502    -14.867203    32.285473    -1.806306    -33.763664    -29.254841    -13.571905    31.028875    -22.843752    -7.076994    -3.775945    31.957239    0.000000    0.000000    0.000000    2.746071    9.529648    -19.609081    2.122680    30.501261    -3.425720    0.162192    -34.635429    -7.671862    0.000000    0.000000    0.000000    
-33.322388    149.766495    -29.651447    1.719733    -0.361864    23.715956    -0.583825    2.519403    11.218694    -2.841584    0.842940    3.757015    -7.487116    7.666678    -18.135202    19.338234    -7.028927    -14.440769    2.685377    1.881105    -7.425617    -21.843899    0.115582    -46.346447    -14.654441    -23.533031    -100.583206    -6.874006    -37.817986    -19.884480    0.210289    12.400961    0.824659    41.707794    10.812009    47.541279    -42.721119    -37.252632    45.620613    20.833858    -14.897655    32.287674    -1.820651    -33.764641    -29.259048    -13.555689    31.039335    -22.870285    -7.082911    -3.779317    31.947210    0.000000    0.000000    0.000000    2.759832    9.532434    -19.628986    2.120012    30.500160    -3.438636    0.155045    -34.640385    -7.681330    0.000000    0.000000    0.000000    
-33.323483    149.762054    -29.648537    1.720662    -0.361749    23.742525    -0.583985    2.511053    11.224519    -2.863928    0.847896    3.759267    -7.474660    7.666866    -18.156418    19.355904    -7.013100    -14.463215    2.654793    1.927768    -7.416985    -22.007465    0.471621    -46.545670    -14.431190    -23.686029    -100.735939    -6.826293    -37.779358    -19.769512    0.208840    12.396714    0.826399    41.703960    10.822001    47.533089    -42.773022    -37.254906    45.562973    20.808174    -14.910464    32.281067    -1.833710    -33.765144    -29.281279    -13.557083    31.035109    -22.880363    -7.079256    -3.783230    31.947735    0.000000    0.000000    0.000000    2.763898    9.533889    -19.625351    2.130486    30.504766    -3.427672    0.137124    -34.647247    -7.717319    0.000000    0.000000    0.000000    
-33.329155    149.755981    -29.647583    1.722562    -0.362555    23.768135    -0.598931    2.503550    11.228502    -2.858395    0.856241    3.760667    -7.501354    7.665650    -18.175270    19.401190    -6.993736    -14.474939    2.609411    1.974836    -7.408430    -22.202866    0.749548    -46.740246    -14.260419    -23.711329    -100.876068    -6.660516    -37.697292    -19.606544    0.197239    12.407043    0.828179    41.697727    10.812405    47.541248    -42.810585    -37.254704    45.517872    20.798494    -14.915046    32.284199    -1.847479    -33.766304    -29.299751    -13.552711    31.037098    -22.888002    -7.086312    -3.785175    31.941263    0.000000    0.000000    0.000000    2.771594    9.531989    -19.631586    2.145982    30.514111    -3.448167    0.125476    -34.649113    -7.750612    0.000000    0.000000    0.000000    
